PathFileType	4	(X/Y/Z)	G:\TennisProject\Miami_Dimitrov_Sinner_masked_Sports2D\Miami_Dimitrov_Sinner_masked_Sports2D_px_person02.trc
DataRate	CameraRate	NumFrames	NumMarkers	Units	OrigDataRate	OrigDataStartFrame	OrigNumFrames
25	25	9	22	m	25	187	499
Frame#	Time	Hip			RHip			RKnee			RAnkle			RBigToe			RSmallToe			RHeel			LHip			LKnee			LAnkle			LBigToe			LSmallToe			LHeel			Neck			Head			Nose			RShoulder			RElbow			RWrist			LShoulder			LElbow			LWrist		
		X1	Y1	Z1	X2	Y2	Z2	X3	Y3	Z3	X4	Y4	Z4	X5	Y5	Z5	X6	Y6	Z6	X7	Y7	Z7	X8	Y8	Z8	X9	Y9	Z9	X10	Y10	Z10	X11	Y11	Z11	X12	Y12	Z12	X13	Y13	Z13	X14	Y14	Z14	X15	Y15	Z15	X16	Y16	Z16	X17	Y17	Z17	X18	Y18	Z18	X19	Y19	Z19	X20	Y20	Z20	X21	Y21	Z21	X22	Y22	Z22
187	7.48	1327.8479030080919	173.9180632450561	0.0	1321.9571930339484	174.86426359005742	0.0	1319.8783971531675	195.8658103033538	0.0	1317.3894723010817	217.82290466252164	0.0	1317.190799216625	222.25000503125537	0.0	1314.379443719175	221.97898982034963	0.0	1317.8958152508803	220.5735371236837	0.0	1332.9477570053714	175.1949866594389	0.0	1332.6725514051598	195.9364378599117	0.0	1332.268127196146	218.0963282901436	0.0	1333.1608370019658	221.8589206983429	0.0	1335.6260389071924	221.61623290433494	0.0	1330.6127380140083	220.7860557189796	0.0	1328.7762402364378	143.64362606314916	0.0	1328.9888077191458	130.04362735804392	0.0	1328.602263028803	137.95963615192824	0.0	1318.8788189249337	149.06714402990406	0.0	1315.8571118167974	161.89492975409053	0.0	1322.630561021187	168.37116431635727	0.0	1338.3487578433883	149.47835479052299	0.0	1339.7677954428184	162.2825740267241	0.0	1332.661618062639	167.53861708028154	0.0
188	7.5200000000000005	1327.9494298827115	173.87351899905173	0.0	1322.068622050297	174.81670366228866	0.0	1319.9788111608711	195.92858322358657	0.0	1317.5279882914776	217.88445677104957	0.0	1317.345489028965	222.24789093303318	0.0	1314.5394444023598	221.97776172386364	0.0	1317.8284555056612	220.64441085400628	0.0	1333.0403680630384	175.18515298026622	0.0	1332.714136123326	195.93204232200065	0.0	1332.3070170453896	218.07018817961304	0.0	1333.089844473447	221.70093339650026	0.0	1335.5576652615239	221.40530782914703	0.0	1330.5616737648843	220.65188584878808	0.0	1328.9457822290015	143.68872340503893	0.0	1329.0940691321236	130.11436996757826	0.0	1328.6134655936335	137.961118344488	0.0	1318.9353810520959	148.9940297039019	0.0	1315.9952075958397	161.88394448171658	0.0	1322.729998116717	168.33660892511844	0.0	1338.514711425474	149.45416364242178	0.0	1339.9100022779312	162.17764443724053	0.0	1332.8547560121474	167.47474552999674	0.0
189	7.5600000000000005	1328.0132152567282	174.11860631825425	0.0	1322.0380423651914	175.06540944001625	0.0	1319.9095545500948	196.02527734224176	0.0	1317.4370855131726	217.93781099489064	0.0	1317.3910014290686	222.36988505324172	0.0	1314.579612232203	222.10493583519835	0.0	1317.8446181443237	220.59271718719515	0.0	1333.0041908999606	175.39229279166295	0.0	1332.5924107931717	196.0045739617363	0.0	1332.4245400719517	217.98917539505035	0.0	1333.214977654863	221.83865432161298	0.0	1335.5528036144506	221.6253116153936	0.0	1330.543595952926	220.77848819093	0.0	1328.9233155070024	143.5705178031077	0.0	1329.1225088179233	130.22569303125155	0.0	1328.7384573200998	137.90891088159532	0.0	1318.8264396774516	148.94539867316678	0.0	1315.8049940249537	161.91399390614498	0.0	1322.6424735183973	168.50507828054663	0.0	1338.4906899488462	149.40719575713905	0.0	1339.8136022292308	162.0632081614283	0.0	1332.9526496098272	167.5498422623591	0.0
190	7.6000000000000005	1327.9704107021885	174.33874638203164	0.0	1321.93544593274	175.24588551491507	0.0	1319.7968642240717	196.1474475472985	0.0	1317.3543681662538	217.92119864742557	0.0	1317.3811429155505	222.396200173495	0.0	1314.5568933441295	222.1983712284587	0.0	1317.899641312361	220.54665645680868	0.0	1332.8999393961144	175.53291156495453	0.0	1332.5396223260288	196.14994518337133	0.0	1332.4654998301721	217.98293556398178	0.0	1333.302031403293	222.02124798180876	0.0	1335.6308183841793	221.8999419075656	0.0	1330.5712731453016	220.9944901907507	0.0	1328.8140778387528	143.46558233542206	0.0	1329.0897314551369	130.26492173549207	0.0	1328.809250531844	137.8436341190375	0.0	1318.7584694376458	149.00838719800655	0.0	1315.5910527962578	161.90926027850776	0.0	1322.6158452431232	168.51124492567814	0.0	1338.373037035159	149.35899540147525	0.0	1339.6579371242087	162.00459278225242	0.0	1332.839337789821	167.6383738152336	0.0
191	7.640000000000001	1327.8630540025404	174.16394099572517	0.0	1321.9456438569516	174.9759517673448	0.0	1319.8117267369526	196.15487569413204	0.0	1317.4428786009707	217.87114355254104	0.0	1317.3082657501045	222.24001571886217	0.0	1314.510431659207	222.10542126823415	0.0	1317.8654967403304	220.6024850851293	0.0	1332.8913311573754	175.3049666012637	0.0	1332.6721344484715	196.21144888132036	0.0	1332.370423427305	218.0683490132523	0.0	1333.198183839352	221.91806320023824	0.0	1335.652844376544	221.79953062882288	0.0	1330.5466434062205	220.89928428480795	0.0	1328.8651940467812	143.53069188101813	0.0	1329.1450806824264	130.21291463081522	0.0	1328.7532670150786	137.7759728761003	0.0	1318.8543415588588	149.05169420776483	0.0	1315.6897664691892	161.79506743584398	0.0	1322.7810275227835	168.0983489369658	0.0	1338.3862102807784	149.30571170557718	0.0	1339.7089326759974	161.85375304217558	0.0	1332.708530109149	167.52732444209892	0.0
192	7.68	1327.7666074227834	173.81850528725863	0.0	1321.978728781443	174.58576373588755	0.0	1319.8821569418728	195.95136665709884	0.0	1317.5076592548533	217.806428429068	0.0	1317.1308318511742	222.13987113494392	0.0	1314.3928956245322	221.96230222036272	0.0	1317.794943634786	220.54430845715402	0.0	1332.8849440644437	174.95581248256778	0.0	1332.7416364917647	196.05390389433643	0.0	1332.2503563106059	218.0723630281962	0.0	1333.0397368082993	221.78345548904122	0.0	1335.5232457680136	221.59542997719893	0.0	1330.4061421114843	220.63332280084103	0.0	1328.9602718621566	143.6367856505643	0.0	1329.2228179155331	130.13425629636595	0.0	1328.6603954110349	137.70984819394354	0.0	1318.918499412343	148.99022524103395	0.0	1315.8705976574915	161.60781339691823	0.0	1322.959285098004	167.57125389582987	0.0	1338.4483470456503	149.30556425577836	0.0	1339.7708456449298	161.68634311833182	0.0	1332.6191970010077	167.33197742059875	0.0
193	7.72	1327.7200052652072	173.7615680073053	0.0	1321.899696358469	174.56850355711316	0.0	1319.8080892487378	195.70338216430326	0.0	1317.414638412451	217.73326360256462	0.0	1317.0237124084579	222.24409793969278	0.0	1314.253627371565	221.97913008926886	0.0	1317.8404480017057	220.34440902666825	0.0	1332.7341934209455	174.89681651346763	0.0	1332.6100438166127	195.84933934221132	0.0	1332.207509033398	217.93611177358613	0.0	1332.9291717111455	221.91770504209202	0.0	1335.353390408991	221.66069655909405	0.0	1330.268536924836	220.6517772927029	0.0	1328.840627904442	143.61255036523306	0.0	1329.1197821883975	130.09311872038708	0.0	1328.5976818163986	137.66093956796087	0.0	1318.8189972224059	148.90994154213575	0.0	1315.7950230976119	161.50793035058268	0.0	1323.0681673598792	167.27216414980347	0.0	1338.3550651988896	149.3911366832368	0.0	1339.6398314168828	161.70822821460123	0.0	1332.4457575441838	167.23996010742184	0.0
194	7.76	1327.7176954422343	173.89060781138716	0.0	1321.835224025594	174.73197421347885	0.0	1319.655599559888	195.62232767645892	0.0	1317.333616303924	217.72850411084553	0.0	1317.087393377143	222.3619580627479	0.0	1314.2109447755456	222.07042456003205	0.0	1317.9474092722298	220.32203672364471	0.0	1332.581700070051	175.0190964796821	0.0	1332.524062911882	195.8472751692488	0.0	1332.2327431081787	217.87253990753288	0.0	1332.8540744287136	222.08545767736996	0.0	1335.314323935032	221.79215995291588	0.0	1330.25246601199	220.86425763647057	0.0	1328.661328152813	143.57037691120195	0.0	1328.9374531929775	130.11935778191284	0.0	1328.560915783311	137.62701736414928	0.0	1318.7282726701005	148.88946396799534	0.0	1315.655240266198	161.53100700681753	0.0	1323.1711104390406	167.1916699058805	0.0	1338.2170752666566	149.47567011997333	0.0	1339.5432202003815	161.83072543392427	0.0	1332.276662735634	167.22619600043416	0.0
195	7.8	1327.7566196095006	173.84519256068188	0.0	1321.8977380354604	174.65679664823813	0.0	1319.6710725136757	195.7108034195724	0.0	1317.3964076552852	217.82089874866767	0.0	1317.1457465569683	222.3333208691066	0.0	1314.30609813917	222.0593438046121	0.0	1317.9423216954035	220.55409706155493	0.0	1332.63280728517	174.98564257517953	0.0	1332.6374556620274	195.97022511438192	0.0	1332.2517397201316	218.00601965855253	0.0	1332.8444634322618	221.99802828946454	0.0	1335.3876537504043	221.6541184367444	0.0	1330.299260682806	220.85394038513027	0.0	1328.7326916523866	143.6629590349324	0.0	1328.9341876449023	130.17045278443194	0.0	1328.5419509115554	137.62799790682558	0.0	1318.8085820151282	148.9060462043434	0.0	1315.764505915548	161.53866823805993	0.0	1323.2503187196548	167.24450687599625	0.0	1338.2771251714005	149.45425472541825	0.0	1339.6813319713783	161.81897643073364	0.0	1332.3738473238259	167.24792807075565	0.0
